<svg viewBox="0 0 103 36" 
  xmlns="http://www.w3.org/2000/svg">
  <defs xmlns="http://www.w3.org/2000/svg">
    <style>
      #symbol-scotibank-colpatria-red path{fill:#ec111a;stroke:none}
    </style>
  </defs>
  <g id="symbol-scotibank-colpatria-red" fill-rule="nonzero">
    <path d="M25.9120407 6.8091706H15.6747459C9.8362002 6.8091706 5.0293198 11.2683749 4.4057858 17 3.5101642 15.3607552 3 13.4693189 3 11.4632502 3 5.1355361 8.078968 0 14.336982 0H32M6.0879593 29.1908294h10.2372948c5.8385457 0 10.6454261-4.4592043 11.2689601-10.1908294C28.4898358 20.6392448 29 22.5306811 29 24.5367498 29 30.8644639 23.9210321 36 17.663018 36H0"/>
    <path d="M25 18.0000116C25 22.9763439 20.9651308 27 16 27c-4.9763387 0-9-4.034864-9-8.9999884C7 13.0236794 11.0348692 9 16 9c4.9651308-.0111847 9 4.0236794 9 9.0000116M72.9311663 27.3992395c1.7437859-.6730038 3.2695985-1.460076 4.623327-2.2357414-1.0669216.2965779-2.6042065.6844106-4.623327.9581749-1.1586998.1140684-2.4894837.3079848-3.8546845.3992395-5.667304.2851712-20.3173996-2.2471482-20.3173996-10.1749049 0-8.78327 15.705545-12.513308 24.1720841-13.4828897.7686425 0 1.4455067-.1026616 2.122371-.1026616 5.9770554-.3079848 13.4799235.285171 14.6386233.3764258C84.873805 1.174905 79.1950287 0 72.9311663 0 56.3652008 0 43 8.121673 43 18c0 5.0874525 3.4531549 9.6844106 9.1434034 13.0038023 5.7820268.3992395 15.7858509-1.9505704 15.7858509-1.9505704 1.8240918-.4904943 3.4646272-1.0608365 5.001912-1.6539924m0-2.3269962c.3785851 0 .7686425.0912548 1.1472276.0912548 1.4455067 0 2.8910134-.1939164 4.3365201-.5931559 2.8910133-2.1444867 4.4397705-4.5057034 4.4397705-6.5475285 0-3.7072243-4.3365201-6.6387833-9.9349904-7.0380228h-1.0554494c-1.4340344 0-2.9827915.1939163-4.33652.5931559-2.9827916 2.1558935-4.4282983 4.4942965-4.4282983 6.5475285.0229445 3.513308 4.3479923 6.5361217 9.8317399 6.946768M93.833652 5.121673c-5.7820268-.4904943-15.7858509 1.8593156-15.7858509 1.8593156-1.835564.4790874-3.5678776.9695817-5.1051625 1.6539924-1.7323136.6844106-3.2695984 1.4714829-4.5086042 2.3498099.9636711-.3764259 2.5927342-.6844107 4.5086042-.9695818 1.1472276-.21673 2.4894838-.4106464 3.9464627-.4106464 5.6787763-.285171 20.2370937 2.1558936 20.2370937 10.174905 0 8.6121673-15.6137667 12.4106464-24.1720841 13.2889734-.7801147.0912547-1.5372849.0912547-2.1223709.2053232-5.873805.3764258-13.3766731-.2053232-14.5353729-.296578C61 34.9277567 66.7820268 36 72.9541109 36 89.5200765 35.8973384 103 27.8897338 103 18.0114068c-.022945-5.0760456-3.5908222-9.5703422-9.166348-12.8897338"/>
  </g>
</svg>
