<svg viewBox="0 0 284 25" xmlns="http://www.w3.org/2000/svg">
  <defs xmlns="http://www.w3.org/2000/svg">
    <style>
      #logo-scotibank-colpatria-red path{fill:#ec111a;stroke:none}
    </style>
  </defs>
  <g id="logo-scotibank-colpatria-red" fill="none" fill-rule="evenodd">
    <g id="left-container" fill="#FFF" fill-rule="nonzero">
      <g id="Group">
        <path d="M53.286455 17.0315315c-1.298836 0-2.3584127-1.0612612-2.3584127-2.3621621s1.0595767-2.3621622 2.3584127-2.3621622 2.3584127 1.0612613 2.3584127 2.3621622c0 1.3009009-1.0595767 2.3621621-2.3584127 2.3621621m0-7.736937c-2.9565608 0-5.3491534 2.4135136-5.3491534 5.3576578 0 2.9612612 2.4096825 5.3576576 5.3491534 5.3576576 2.9394709 0 5.3491535-2.4135135 5.3491535-5.3576576 0-2.9441442-2.4096826-5.3576577-5.3491535-5.3576577" id="Shape"/>
        <path id="Path" d="M65.4544974 9.5513513h-1.4526455V6.3846847h-3.2129101v3.1666666h-1.4526455v2.90991h1.4526455v7.309009h3.2129101v-7.309009h1.4526455"/>
        <path id="Rectangle" d="M66.9242328 9.5513513h3.1958201v10.2189189h-3.1958201z"/>
        <path d="M68.5306878 4.6045045c-.9912169 0-1.7773545.8045045-1.7773545 1.7801802s.8032275 1.7801802 1.7773545 1.7801802c.991217 0 1.7773545-.8045045 1.7773545-1.7801802s-.8032275-1.7801802-1.7773545-1.7801802M114.451376 12.3072072c1.059576 0 1.914074.8558559 1.914074 1.9171171v5.545946h3.19582v-5.990991c0-2.7216216-1.572275-4.4846847-4.050318-4.4846847-1.025396 0-2.084973.445045-2.97365 1.8828829V9.5513513h-3.195821v10.218919h3.195821v-5.545946c0-1.0612612.854497-1.9171171 1.914074-1.9171171M131.216614 19.7702703l-3.930688-5.1009009 3.657249-5.118018h-3.742699l-2.939471 4.1423423V4.8612613h-3.19582v14.909009h3.19582v-4.2108108l3.23 4.2108108M36.8971958 17.0144144c.2221693-.5477477.324709-1.1126126.324709-1.8828829 0-1.027027-.324709-1.9513513-.9057672-2.6018018-.6835979-.7531531-1.8457143-1.3693693-3.4692593-1.8486486-.3588889-.1027027-.649418-.2225225-.9057672-.3423424-.2905291-.1369369-.4956085-.3081081-.6835979-.5135135-.2050793-.2225225-.2905291-.4963964-.2905291-.8216216 0-.4792793.2563492-.8045045.666508-1.0612613.5126984-.3252252 1.5210053-.3594594 2.5293121.0171172.3588889.1369369.666508.2738738 1.0253969.4963964l1.3671957-2.7045045c-.5126984-.3081082-1.2304762-.7018018-1.9482539-.872973-.7348678-.1882883-1.4355556-.2738739-2.1704233-.2738739-.7519577 0-1.4355556.1198198-2.0337037.3423424-.5297884.2054054-1.0766667.5648648-1.5551852 1.0099099-.4272487.4108108-.8203175 1.0099099-1.0424868 1.5576576-.2221693.5648649-.3417989 1.1981982-.3417989 1.8828829 0 .7189189.3417989 1.9 1.2133862 2.7045045.9399471.872973 1.9824339 1.1810811 2.4096826 1.3522523.4272486.1711711.8886772.3081081 1.1962963.4279279.307619.1198198.6665079.290991.8715873.445045.2221693.1711712.3588888.3081081.4614285.5135135.1025397.2054054.1196297.3936937.1025397.6504505-.0341799.3423423-.1879894.6162162-.4614286.872973-.2734391.2567567-.7690476.4108108-1.4697354.4108108-.5810582 0-1.1962963-.1711712-1.7773545-.427928-.5297884-.2396396-.8886773-.445045-1.4526455-.7702702l-1.606455 2.7900901c1.1108465.9927928 2.9223809 1.6603603 4.5459259 1.6603603.8203174 0 1.6748148-.1369369 2.4096825-.3936937.6835979-.2396396 1.3671958-.6162162 1.8286244-1.027027.4956084-.4279279.9399471-1.0441441 1.1621164-1.5918919" id="Path"/>
        <path d="M133.472487 19.4108108c-.786138 0-1.418466-.6333333-1.418466-1.4207207s.632328-1.4207207 1.418466-1.4207207c.786137 0 1.418465.6333333 1.418465 1.4207207.01709.7873874-.632328 1.4207207-1.418465 1.4207207m0-3.218018c-.991217 0-1.777355.8045045-1.777355 1.7801802 0 .9927928.803228 1.7801802 1.777355 1.7801802.991217 0 1.777354-.8045046 1.777354-1.7801802.01709-.9756757-.786137-1.7801802-1.777354-1.7801802" id="Shape"/>
        <path d="M133.190132 17.9558559h.419501c.157313 0 .279668-.136937.279668-.3081082 0-.1711711-.122355-.2909909-.279668-.2909909h-.419501v.5990991zm.297147.3252252h-.297147v.6846847h-.367063v-1.9513514h.769085c.367064 0 .66421.290991.66421.6504505 0 .2396396-.157313.4621621-.384542.5648648l.419501.7360361h-.436981l-.367063-.6846847z" id="Shape"/>
        <path d="M45.6643386 16.1414414c-.4272487.5306307-1.0937566.8900901-1.8457143.8900901-1.2988359 0-2.3584127-1.0612612-2.3584127-2.3621621s1.0595768-2.3621622 2.3584127-2.3621622c.7348678 0 1.4013757.3423423 1.8457143.8900901l2.1191535-2.1225225c-.974127-1.0783784-2.3925926-1.763063-3.9648678-1.763063-2.9565608 0-5.5200529 2.1054053-5.5200529 5.3576576 0 3.2522522 2.5634921 5.3576576 5.5200529 5.3576576 1.5722752 0 2.9736508-.6846847 3.9648678-1.763063" id="Path"/>
        <path d="M77.0585714 17.0657658c-1.3330158 0-2.4096825-1.0783784-2.4096825-2.4135135 0-1.3351352 1.0766667-2.4135136 2.4096825-2.4135136 1.3330159 0 2.4096826 1.0783784 2.4096826 2.4135136 0 1.3351351-1.0937566 2.4135135-2.4096826 2.4135135zm5.5884127 2.7045045V9.5513513h-3.1103703v1.0783784l-.2905291-.2567567c-.7861376-.7018018-1.6577249-1.0783784-2.6831217-1.0783784-2.7514815 0-5.0757143 2.4477477-5.0757143 5.3576577 0 2.9099099 2.3242328 5.3576576 5.0757143 5.3576576 1.0253968 0 1.914074-.3765766 2.6831217-1.0783784l.2905291-.2567567v1.0783784h3.1103703v.0171171zM102.197884 17.0657658c-1.333016 0-2.4096829-1.0783784-2.4096829-2.4135135 0-1.3351352 1.0766669-2.4135136 2.4096829-2.4135136 1.333015 0 2.409682 1.0783784 2.409682 2.4135136 0 1.3351351-1.076667 2.4135135-2.409682 2.4135135zm5.605502 2.7045045V9.5513513h-3.12746v1.0783784l-.290529-.2567567c-.786138-.7018018-1.657725-1.0783784-2.683122-1.0783784-2.7514813 0-5.0757142 2.4477477-5.0757142 5.3576577 0 2.9099099 2.3242329 5.3576576 5.0757142 5.3576576 1.025397 0 1.914074-.3765766 2.683122-1.0783784l.290529-.2567567v1.0783784h3.12746v.0171171zM87.5005291 14.6522523c0-1.3351352 1.0766667-2.4135136 2.4096825-2.4135136 1.3330159 0 2.4096826 1.0783784 2.4096826 2.4135136 0 1.3351351-1.0766667 2.4135135-2.4096826 2.4135135-1.3330158 0-2.4096825-1.0783784-2.4096825-2.4135135zm-.0683598 5.118018v-1.0783784l.2905291.2567567c.7861376.7018019 1.6577249 1.0783784 2.6831217 1.0783784 2.7514815 0 5.0757143-2.4477477 5.0757143-5.3576576 0-2.9099099-2.3242328-5.3576577-5.0757143-5.3576577-1.0253968 0-1.9140741.3765766-2.6831217 1.0783784l-.2905291.2567567V4.8783784H84.304709v14.909009h3.1274603v-.0171171z" id="Shape"/>
        <path d="M18.0298942 4.6045045h-6.9556085c-3.9648677 0-7.2290476 2.9954955-7.6562963 6.8468469-.615238-1.1126127-.957037-2.3792793-.957037-3.7315316C2.4609524 3.4576577 5.9131217 0 10.1685185 0h11.9971429M4.1357672 20.027027h6.9556085c3.9648677 0 7.2290476-2.9954955 7.6562963-6.8468468.6152381 1.1126126.957037 2.3792793.957037 3.7315315 0 4.2621622-3.4521693 7.7198198-7.7075661 7.7198198H0" id="Path"/>
        <path d="M17.2608466 12.3072072c0 3.4234234-2.7685715 6.1963964-6.1865609 6.1963964-3.4179894 0-6.1865608-2.772973-6.1865608-6.1963964 0-3.4234234 2.7685714-6.1963964 6.1865608-6.1963964 3.4179894 0 6.1865609 2.772973 6.1865609 6.1963964" id="Path"/>
        <path d="M229.159101 12.136036c-.341799.0684685-.734868.0684685-1.076667.0684685h-.581058l.512698-3.1324324h1.145027c1.042486 0 1.845714.2738739 1.674814 1.5747747-.239259 1.0612613-.854497 1.3693694-1.674814 1.4891892m3.623068-5.1864865c-.683598-.3423423-1.538095-.445045-2.529312-.445045h-5.246614l-2.067883 12.4099099h3.452169l.700688-4.090991h2.067884c1.503915-.0684684 2.751481-.445045 3.623068-1.1639639.888678-.7018018 1.384286-1.6774775 1.623545-3.0468469.273439-1.9171171-.341799-3.063964-1.623545-3.663063" id="Shape"/>
        <path id="Path" d="M219.947619 6.5045045h-3.452169l-2.067884 12.1873874v.2225225h7.587937l.461428-2.7387387h-4.135767M200.482169 7.0522522l-.153809-.0513513c-.871588-.3594595-1.760265-.5135135-2.734392-.5135135-1.811534 0-3.725608.736036-5.144074 1.9342342-1.367196 1.1468469-2.290053 2.6873874-2.563492 4.3135135-.273439 1.7630631.10254 3.2693694 1.315926 4.4675676 1.093757 1.0954955 2.683122 1.7117117 4.426296 1.7117117 1.025397 0 1.862805-.2054054 3.007831-.5135135l.615238-3.6801802c-.820317.7702703-1.965344 1.2495496-3.0591 1.2495496-2.016614 0-3.178731-1.3522523-2.836932-3.218018.27344-1.8144145 1.862805-3.2693694 3.879418-3.2693694 1.093757 0 2.136244.4621621 2.631852 1.3009009l.495609-2.9612613"/>
        <path d="M210.701958 12.5468468c-.324709 1.7801802-1.828625 3.0981982-3.503439 3.3720721-.20508 0-.410159.0342343-.581059.0342343-1.879894 0-3.23-1.4207208-2.905291-3.4063064.22217-1.5405405 1.777355-2.8585585 3.48635-3.1324324h.495608c1.948254 0 3.29836 1.4891892 3.007831 3.1324324m-2.512223-6.0423423c-.324709 0-.666507 0-.991216.0342342-3.161641.3594595-6.220741 2.6018018-6.818889 5.7342343v.2054054c-.15381.8558558-.15381 1.6774775 0 2.4135135.546878 2.4477477 2.700211 4.0225225 5.759312 4.0225225.324709 0 .700688-.0342342 1.059577-.1027027 3.503439-.3936937 6.30619-2.9099099 6.853068-6.3333333v-.2567568c.03418-.4621621.03418-.9243243 0-1.318018-.324709-2.6702703-2.905291-4.3990991-5.861852-4.3990991" id="Shape"/>
        <path d="M178.914656 4.7585586c-3.486349-.290991-9.50201 1.0954955-9.50201 1.0954955-1.110847.290991-2.153334.5648648-3.076191.9756756-1.042487.3936937-1.982434.8558559-2.717302 1.3693694.581059-.2225225 1.572276-.3936937 2.717302-.5648649.683598-.1198198 1.503915-.2396396 2.375503-.2396396 3.417989-.1711712 12.185132 1.2666667 12.185132 5.9567568 0 5.0324324-9.399471 7.2747747-14.560635 7.7882882-.461429.0513514-.939947.0513514-1.281746.1198199-3.537619.2225225-8.049365-.1198199-8.750053-.1711712 2.836931 1.1468468 6.306191 1.7801802 10.031799 1.7801802 9.980529-.0513514 18.098254-4.7585586 18.098254-10.5441442 0-2.9954955-2.153333-5.6144144-5.520053-7.5657657M270.858571 6.5045045h-3.452169l-2.016614 12.4099099h3.45217l1.384285-8.6783784M254.742751 6.5045045h-9.074762l-.461428 2.7387387h2.819841l-1.555185 9.6711712h3.452169l1.555185-9.6711712h2.871112" id="Path"/>
        <path d="M275.688458 13.8517197l1.400906-2.7381664.617066-1.1758996.783841 3.914066h-2.801813zm4.486236-7.676945h-3.652363l-6.404144 11.1038525-.550356 1.0583097h3.585653l1.234132-2.0830222h4.602978l.500324 2.0830222h3.568976l-2.8852-12.1621621zM259.869735 11.9135135c-.393068.1027027-.803227.1540541-1.162116.1540541h-.341799l.512699-3.0981982h.974127c.854497.1027027 1.606455.445045 1.503915 1.5234234-.15381.8900901-.786138 1.2666667-1.486826 1.4207207m5.075715-1.5747748c.461428-2.6873874-1.315926-3.8342342-3.964868-3.8342342h-5.126984l-1.606455 9.4657658-.478519 2.9441441h3.46926l.803227-4.7585585 1.845714 3.4918918.632328 1.2666667h4.323757l-3.36672-5.0837838c1.965344-.3252252 3.23-1.8144144 3.46926-3.4918919M237.447725 14.327027l1.435555-2.7900901.632328-1.1981982.803228 3.9882883h-2.871111zm4.665555-7.8225225h-3.776878l-5.537143 9.5171171-1.606455 2.8927928h3.691429l1.264656-2.1225225h4.716825l.512699 2.1225225h3.691428L242.11328 6.5045045z" id="Shape"/>
        <path d="M166.336455 16.4495495c.222169 0 .461429.0513514.683598.0513514.871587 0 1.743175-.1198198 2.614762-.3423423 1.743174-1.2495496 2.683122-2.6360361 2.683122-3.8342343 0-2.1738738-2.614762-3.8855856-5.981482-4.1252252h-.632328c-.871587 0-1.794444.1198198-2.597672.3423423-1.794444 1.2666667-2.666115 2.6360361-2.666115 3.8342343-.017007 2.054054 2.597755 3.8342342 5.896115 4.0738738" id="Path"/>
        <path d="M166.336455 17.8018018c1.042487-.3936937 1.965344-.8558559 2.785661-1.318018-.632328.1711712-1.572275.3936937-2.785661.5648648-.700688.0684685-1.503915.1882883-2.324233.2396397-3.417989.1711712-12.236402-1.318018-12.236402-5.9567568 0-5.1522522 9.450741-7.326126 14.560635-7.890991.461429 0 .871587-.0513513 1.281746-.0513513 3.605979-.1711712 8.117725.1711712 8.818413.2225225-2.905291-1.1468468-6.323281-1.8315315-10.100159-1.8315315-9.980529 0-18.029894 4.7585585-18.029894 10.5441441 0 2.9783784 2.084973 5.6657658 5.502963 7.6171171 3.486349.2225226 9.50201-1.1468468 9.50201-1.1468468 1.110847-.3081081 2.102064-.6333333 3.024921-.9927928" id="Path"/>
      </g>
    </g>
  </g>
</svg>
